<svg xmlns="http://www.w3.org/2000/svg" xmlns:xlink="http://www.w3.org/1999/xlink" width="1200" height="800"><defs><path id="a" d="m -40,65.5 h 80 v -12 h -80 z m 56,-12 c 0,-18 11,-64 33,-86 19,-19 40,-16 51,-6 11,10 16,32 2,51 -8,11 -23,23 -36,27 4,-10 12,-32 -6,-32 -12,0 -29,17 -29,46 z m -32,0 c 0,-18 -11,-64 -33,-86 -19,-19 -40,-16 -51,-6 -11,10 -16,32 -2,51 8,11 23,23 36,27 -4,-10 -12,-32 6,-32 12,0 29,17 29,46 z m 26,0 c 0,-23 0,-38 12,-68 18,-47 10,-92 -22,-125 -32,33 -40,78 -22,125 12,30 12,45 12,68 z m 9,12 c 6,21 21,27 29,31 -13,4 -24,3 -36,-3 3,15 2,31 -12,46 -14,-15 -15,-30 -12,-46 -12,6 -23,7 -36,3 8,-4 23,-10 29,-31 z" fill="gold" stroke="#202326" stroke-width="1.5"/></defs><path fill="#009" d="M0 0H1200V800H0z"/><g id="c" transform="scale(0.33333333)"><g id="b"><use xlink:href="#a" transform="translate(250,200)" width="100%" height="100%"/><use xlink:href="#a" transform="translate(250,700)" width="100%" height="100%"/><use xlink:href="#a" transform="translate(250,1200)" width="100%" height="100%"/><use xlink:href="#a" transform="translate(250,1700)" width="100%" height="100%"/></g><use xlink:href="#b" transform="translate(310,250)" width="100%" height="100%"/><use xlink:href="#a" transform="translate(250,2200)" width="100%" height="100%"/></g><use xlink:href="#c" transform="translate(206.66667)" width="100%" height="100%"/><use xlink:href="#c" transform="translate(413.33333)" width="100%" height="100%"/><use xlink:href="#c" transform="translate(620)" width="100%" height="100%"/><use xlink:href="#c" transform="translate(826.66667)" width="100%" height="100%"/><use xlink:href="#b" transform="matrix(0.33333333,0,0,0.33333333,1033.3333,0)" width="100%" height="100%"/><use xlink:href="#a" transform="matrix(0.33333333,0,0,0.33333333,1116.6667,733.3333)" width="100%" height="100%"/></svg>